<svg xmlns="http://www.w3.org/2000/svg" xmlns:xlink="http://www.w3.org/1999/xlink" width="250" zoomAndPan="magnify" viewBox="0 0 187.5 149.999998" height="200" preserveAspectRatio="xMidYMid meet" version="1.0"><defs><g/></defs><g fill="#e03932" fill-opacity="1"><g transform="translate(2.589782, 94.973438)"><g><path d="M 2.953125 -41.703125 C 2.953125 -42.453125 3.015625 -43.101562 3.140625 -43.65625 C 3.273438 -44.21875 3.523438 -44.6875 3.890625 -45.0625 C 4.253906 -45.4375 4.757812 -45.71875 5.40625 -45.90625 C 6.050781 -46.101562 6.890625 -46.203125 7.921875 -46.203125 L 22.265625 -46.203125 C 23.503906 -46.203125 24.453125 -46.019531 25.109375 -45.65625 C 25.765625 -45.289062 26.222656 -44.832031 26.484375 -44.28125 C 26.753906 -43.738281 26.898438 -43.160156 26.921875 -42.546875 C 26.953125 -41.929688 26.96875 -41.367188 26.96875 -40.859375 L 26.96875 -4.40625 C 28.445312 -4.625 29.816406 -4.816406 31.078125 -4.984375 C 31.617188 -5.046875 32.160156 -5.113281 32.703125 -5.1875 C 33.253906 -5.269531 33.757812 -5.34375 34.21875 -5.40625 C 34.675781 -5.46875 35.085938 -5.515625 35.453125 -5.546875 C 35.816406 -5.578125 36.085938 -5.59375 36.265625 -5.59375 C 36.628906 -5.59375 36.921875 -5.523438 37.140625 -5.390625 C 37.367188 -5.253906 37.484375 -4.96875 37.484375 -4.53125 L 37.484375 -1.578125 C 37.484375 -1.191406 37.316406 -0.832031 36.984375 -0.5 C 36.648438 -0.164062 36.117188 0 35.390625 0 L 7.84375 0 C 6.84375 0 6.023438 -0.09375 5.390625 -0.28125 C 4.753906 -0.476562 4.253906 -0.757812 3.890625 -1.125 C 3.523438 -1.488281 3.273438 -1.945312 3.140625 -2.5 C 3.015625 -3.0625 2.953125 -3.71875 2.953125 -4.46875 Z M 2.953125 -41.703125 "/></g></g><g transform="translate(40.715683, 94.973438)"><g><path d="M 23.390625 1.25 C 21.671875 1.25 19.945312 1.097656 18.21875 0.796875 C 16.5 0.503906 14.84375 -0.00390625 13.25 -0.734375 C 11.664062 -1.460938 10.1875 -2.429688 8.8125 -3.640625 C 7.4375 -4.859375 6.238281 -6.375 5.21875 -8.1875 C 4.207031 -10 3.410156 -12.144531 2.828125 -14.625 C 2.253906 -17.101562 1.96875 -19.984375 1.96875 -23.265625 C 1.96875 -26.523438 2.253906 -29.394531 2.828125 -31.875 C 3.410156 -34.363281 4.207031 -36.515625 5.21875 -38.328125 C 6.238281 -40.140625 7.4375 -41.644531 8.8125 -42.84375 C 10.1875 -44.050781 11.664062 -45.015625 13.25 -45.734375 C 14.84375 -46.453125 16.5 -46.960938 18.21875 -47.265625 C 19.945312 -47.566406 21.671875 -47.71875 23.390625 -47.71875 C 25.109375 -47.71875 26.832031 -47.566406 28.5625 -47.265625 C 30.300781 -46.960938 31.960938 -46.453125 33.546875 -45.734375 C 35.140625 -45.015625 36.625 -44.050781 38 -42.84375 C 39.375 -41.644531 40.5625 -40.140625 41.5625 -38.328125 C 42.570312 -36.515625 43.363281 -34.363281 43.9375 -31.875 C 44.519531 -29.394531 44.8125 -26.523438 44.8125 -23.265625 C 44.8125 -20.003906 44.519531 -17.128906 43.9375 -14.640625 C 43.363281 -12.148438 42.570312 -10 41.5625 -8.1875 C 40.5625 -6.375 39.375 -4.859375 38 -3.640625 C 36.625 -2.429688 35.140625 -1.460938 33.546875 -0.734375 C 31.960938 -0.00390625 30.300781 0.503906 28.5625 0.796875 C 26.832031 1.097656 25.109375 1.25 23.390625 1.25 Z M 26.28125 -23.265625 C 26.28125 -20.578125 26.476562 -18.332031 26.875 -16.53125 C 27.269531 -14.726562 27.800781 -13.28125 28.46875 -12.1875 C 29.132812 -11.09375 29.878906 -10.316406 30.703125 -9.859375 C 31.535156 -9.398438 32.390625 -9.171875 33.265625 -9.171875 C 34.148438 -9.171875 35.007812 -9.398438 35.84375 -9.859375 C 36.675781 -10.316406 37.421875 -11.09375 38.078125 -12.1875 C 38.734375 -13.28125 39.257812 -14.726562 39.65625 -16.53125 C 40.050781 -18.332031 40.25 -20.578125 40.25 -23.265625 C 40.25 -25.941406 40.050781 -28.179688 39.65625 -29.984375 C 39.257812 -31.785156 38.734375 -33.234375 38.078125 -34.328125 C 37.421875 -35.421875 36.675781 -36.195312 35.84375 -36.65625 C 35.007812 -37.125 34.148438 -37.359375 33.265625 -37.359375 C 32.390625 -37.359375 31.535156 -37.125 30.703125 -36.65625 C 29.878906 -36.195312 29.132812 -35.421875 28.46875 -34.328125 C 27.800781 -33.234375 27.269531 -31.785156 26.875 -29.984375 C 26.476562 -28.179688 26.28125 -25.941406 26.28125 -23.265625 Z M 26.28125 -23.265625 "/></g></g><g transform="translate(87.496324, 94.973438)"><g><path d="M 23.390625 1.25 C 21.671875 1.25 19.945312 1.097656 18.21875 0.796875 C 16.5 0.503906 14.84375 -0.00390625 13.25 -0.734375 C 11.664062 -1.460938 10.1875 -2.429688 8.8125 -3.640625 C 7.4375 -4.859375 6.238281 -6.375 5.21875 -8.1875 C 4.207031 -10 3.410156 -12.144531 2.828125 -14.625 C 2.253906 -17.101562 1.96875 -19.984375 1.96875 -23.265625 C 1.96875 -26.523438 2.253906 -29.394531 2.828125 -31.875 C 3.410156 -34.363281 4.207031 -36.515625 5.21875 -38.328125 C 6.238281 -40.140625 7.4375 -41.644531 8.8125 -42.84375 C 10.1875 -44.050781 11.664062 -45.015625 13.25 -45.734375 C 14.84375 -46.453125 16.5 -46.960938 18.21875 -47.265625 C 19.945312 -47.566406 21.671875 -47.71875 23.390625 -47.71875 C 25.109375 -47.71875 26.832031 -47.566406 28.5625 -47.265625 C 30.300781 -46.960938 31.960938 -46.453125 33.546875 -45.734375 C 35.140625 -45.015625 36.625 -44.050781 38 -42.84375 C 39.375 -41.644531 40.5625 -40.140625 41.5625 -38.328125 C 42.570312 -36.515625 43.363281 -34.363281 43.9375 -31.875 C 44.519531 -29.394531 44.8125 -26.523438 44.8125 -23.265625 C 44.8125 -20.003906 44.519531 -17.128906 43.9375 -14.640625 C 43.363281 -12.148438 42.570312 -10 41.5625 -8.1875 C 40.5625 -6.375 39.375 -4.859375 38 -3.640625 C 36.625 -2.429688 35.140625 -1.460938 33.546875 -0.734375 C 31.960938 -0.00390625 30.300781 0.503906 28.5625 0.796875 C 26.832031 1.097656 25.109375 1.25 23.390625 1.25 Z M 26.28125 -23.265625 C 26.28125 -20.578125 26.476562 -18.332031 26.875 -16.53125 C 27.269531 -14.726562 27.800781 -13.28125 28.46875 -12.1875 C 29.132812 -11.09375 29.878906 -10.316406 30.703125 -9.859375 C 31.535156 -9.398438 32.390625 -9.171875 33.265625 -9.171875 C 34.148438 -9.171875 35.007812 -9.398438 35.84375 -9.859375 C 36.675781 -10.316406 37.421875 -11.09375 38.078125 -12.1875 C 38.734375 -13.28125 39.257812 -14.726562 39.65625 -16.53125 C 40.050781 -18.332031 40.25 -20.578125 40.25 -23.265625 C 40.25 -25.941406 40.050781 -28.179688 39.65625 -29.984375 C 39.257812 -31.785156 38.734375 -33.234375 38.078125 -34.328125 C 37.421875 -35.421875 36.675781 -36.195312 35.84375 -36.65625 C 35.007812 -37.125 34.148438 -37.359375 33.265625 -37.359375 C 32.390625 -37.359375 31.535156 -37.125 30.703125 -36.65625 C 29.878906 -36.195312 29.132812 -35.421875 28.46875 -34.328125 C 27.800781 -33.234375 27.269531 -31.785156 26.875 -29.984375 C 26.476562 -28.179688 26.28125 -25.941406 26.28125 -23.265625 Z M 26.28125 -23.265625 "/></g></g><g transform="translate(134.276965, 94.973438)"><g><path d="M 2.953125 -41.703125 C 2.953125 -42.453125 3.015625 -43.101562 3.140625 -43.65625 C 3.273438 -44.21875 3.523438 -44.6875 3.890625 -45.0625 C 4.253906 -45.4375 4.757812 -45.71875 5.40625 -45.90625 C 6.050781 -46.101562 6.890625 -46.203125 7.921875 -46.203125 L 22.265625 -46.203125 C 23.742188 -46.203125 25.210938 -46.109375 26.671875 -45.921875 C 28.128906 -45.742188 29.523438 -45.4375 30.859375 -45 C 32.203125 -44.570312 33.445312 -44.015625 34.59375 -43.328125 C 35.75 -42.648438 36.75 -41.800781 37.59375 -40.78125 C 38.4375 -39.757812 39.097656 -38.566406 39.578125 -37.203125 C 40.066406 -35.847656 40.3125 -34.28125 40.3125 -32.5 C 40.3125 -29.851562 39.953125 -27.625 39.234375 -25.8125 C 38.515625 -24 37.539062 -22.503906 36.3125 -21.328125 C 35.09375 -20.148438 33.671875 -19.25 32.046875 -18.625 C 30.429688 -18 28.738281 -17.550781 26.96875 -17.28125 L 26.96875 -5.21875 C 26.96875 -4.71875 26.921875 -4.164062 26.828125 -3.5625 C 26.742188 -2.96875 26.53125 -2.40625 26.1875 -1.875 C 25.84375 -1.351562 25.316406 -0.910156 24.609375 -0.546875 C 23.898438 -0.179688 22.925781 0 21.6875 0 L 7.921875 0 C 6.890625 0 6.050781 -0.09375 5.40625 -0.28125 C 4.757812 -0.476562 4.253906 -0.757812 3.890625 -1.125 C 3.523438 -1.488281 3.273438 -1.945312 3.140625 -2.5 C 3.015625 -3.0625 2.953125 -3.71875 2.953125 -4.46875 Z M 35.78125 -32.015625 C 35.78125 -33.296875 35.609375 -34.476562 35.265625 -35.5625 C 34.921875 -36.644531 34.394531 -37.59375 33.6875 -38.40625 C 32.976562 -39.226562 32.066406 -39.90625 30.953125 -40.4375 C 29.835938 -40.976562 28.507812 -41.34375 26.96875 -41.53125 L 26.96875 -21.5625 C 28.507812 -21.789062 29.835938 -22.21875 30.953125 -22.84375 C 32.066406 -23.46875 32.976562 -24.238281 33.6875 -25.15625 C 34.394531 -26.082031 34.921875 -27.128906 35.265625 -28.296875 C 35.609375 -29.460938 35.78125 -30.703125 35.78125 -32.015625 Z M 35.78125 -32.015625 "/></g></g></g><path stroke-linecap="butt" transform="matrix(0.748005, 0, 0, 0.748005, 2.589782, 110.774029)" fill="none" stroke-linejoin="miter" d="M 0.0000828216 1.99932 L 231.710092 1.99932 " stroke="#e03932" stroke-width="4" stroke-opacity="1" stroke-miterlimit="4"/><g fill="#e03932" fill-opacity="1"><g transform="translate(76.480034, 24.102083)"><g><path d="M 2.140625 -8.296875 C 1.867188 -8.234375 1.613281 -8.179688 1.375 -8.140625 C 1.269531 -8.117188 1.164062 -8.097656 1.0625 -8.078125 C 0.96875 -8.054688 0.875 -8.035156 0.78125 -8.015625 C 0.695312 -8.003906 0.617188 -7.992188 0.546875 -7.984375 C 0.472656 -7.984375 0.421875 -7.984375 0.390625 -7.984375 C 0.316406 -7.984375 0.253906 -7.992188 0.203125 -8.015625 C 0.148438 -8.046875 0.125 -8.101562 0.125 -8.1875 L 0.125 -8.921875 C 0.125 -8.992188 0.15625 -9.0625 0.21875 -9.125 C 0.289062 -9.195312 0.398438 -9.234375 0.546875 -9.234375 L 8.53125 -9.234375 C 8.675781 -9.234375 8.78125 -9.195312 8.84375 -9.125 C 8.914062 -9.0625 8.953125 -8.992188 8.953125 -8.921875 L 8.953125 -8.1875 C 8.953125 -8.101562 8.925781 -8.046875 8.875 -8.015625 C 8.832031 -7.992188 8.773438 -7.984375 8.703125 -7.984375 C 8.660156 -7.984375 8.601562 -7.984375 8.53125 -7.984375 C 8.46875 -7.992188 8.390625 -8.003906 8.296875 -8.015625 C 8.210938 -8.035156 8.117188 -8.054688 8.015625 -8.078125 C 7.910156 -8.097656 7.8125 -8.117188 7.71875 -8.140625 C 7.476562 -8.179688 7.21875 -8.234375 6.9375 -8.296875 L 6.9375 -0.875 C 6.9375 -0.726562 6.921875 -0.597656 6.890625 -0.484375 C 6.867188 -0.378906 6.820312 -0.289062 6.75 -0.21875 C 6.6875 -0.144531 6.59375 -0.0859375 6.46875 -0.046875 C 6.34375 -0.015625 6.179688 0 5.984375 0 L 3.125 0 C 2.914062 0 2.75 -0.015625 2.625 -0.046875 C 2.5 -0.0859375 2.398438 -0.144531 2.328125 -0.21875 C 2.253906 -0.289062 2.203125 -0.382812 2.171875 -0.5 C 2.148438 -0.613281 2.140625 -0.742188 2.140625 -0.890625 Z M 2.140625 -8.296875 "/></g></g><g transform="translate(85.572338, 24.102083)"><g><path d="M 5.328125 -6.46875 C 5.421875 -6.539062 5.535156 -6.597656 5.671875 -6.640625 C 5.804688 -6.691406 5.953125 -6.71875 6.109375 -6.71875 C 6.523438 -6.71875 6.847656 -6.570312 7.078125 -6.28125 C 7.304688 -6 7.421875 -5.585938 7.421875 -5.046875 L 7.421875 -0.296875 C 7.421875 -0.222656 7.410156 -0.164062 7.390625 -0.125 C 7.367188 -0.09375 7.34375 -0.0664062 7.3125 -0.046875 C 7.289062 -0.0234375 7.257812 -0.0078125 7.21875 0 C 7.175781 0 7.132812 0 7.09375 0 L 6.6875 0 C 6.570312 0 6.5 -0.03125 6.46875 -0.09375 C 6.4375 -0.15625 6.421875 -0.222656 6.421875 -0.296875 L 6.421875 -5.109375 C 6.421875 -5.347656 6.375 -5.53125 6.28125 -5.65625 C 6.195312 -5.789062 6.0625 -5.859375 5.875 -5.859375 C 5.769531 -5.859375 5.664062 -5.832031 5.5625 -5.78125 C 5.46875 -5.726562 5.390625 -5.671875 5.328125 -5.609375 L 5.328125 -0.90625 C 5.328125 -0.75 5.316406 -0.613281 5.296875 -0.5 C 5.285156 -0.394531 5.25 -0.300781 5.1875 -0.21875 C 5.125 -0.144531 5.03125 -0.0859375 4.90625 -0.046875 C 4.789062 -0.015625 4.628906 0 4.421875 0 L 1.4375 0 C 1.269531 0 1.128906 -0.015625 1.015625 -0.046875 C 0.910156 -0.0859375 0.828125 -0.144531 0.765625 -0.21875 C 0.703125 -0.289062 0.65625 -0.382812 0.625 -0.5 C 0.601562 -0.613281 0.59375 -0.742188 0.59375 -0.890625 L 0.59375 -9.640625 C 0.59375 -9.785156 0.601562 -9.914062 0.625 -10.03125 C 0.65625 -10.144531 0.707031 -10.238281 0.78125 -10.3125 C 0.851562 -10.382812 0.953125 -10.4375 1.078125 -10.46875 C 1.210938 -10.507812 1.378906 -10.53125 1.578125 -10.53125 L 4.40625 -10.53125 C 4.59375 -10.53125 4.75 -10.515625 4.875 -10.484375 C 5 -10.453125 5.09375 -10.394531 5.15625 -10.3125 C 5.226562 -10.238281 5.273438 -10.144531 5.296875 -10.03125 C 5.316406 -9.925781 5.328125 -9.796875 5.328125 -9.640625 Z M 5.328125 -6.46875 "/></g></g><g transform="translate(93.583603, 24.102083)"><g><path d="M 6.421875 -1.0625 C 6.535156 -1.0625 6.640625 -1.078125 6.734375 -1.109375 C 6.828125 -1.148438 6.910156 -1.1875 6.984375 -1.21875 C 7.054688 -1.257812 7.117188 -1.296875 7.171875 -1.328125 C 7.222656 -1.359375 7.257812 -1.375 7.28125 -1.375 C 7.320312 -1.375 7.347656 -1.367188 7.359375 -1.359375 C 7.378906 -1.347656 7.398438 -1.320312 7.421875 -1.28125 L 7.640625 -0.9375 C 7.660156 -0.90625 7.671875 -0.875 7.671875 -0.84375 C 7.671875 -0.8125 7.660156 -0.785156 7.640625 -0.765625 C 7.628906 -0.753906 7.617188 -0.742188 7.609375 -0.734375 C 7.460938 -0.628906 7.285156 -0.519531 7.078125 -0.40625 C 6.867188 -0.300781 6.628906 -0.203125 6.359375 -0.109375 C 6.085938 -0.015625 5.78125 0.0625 5.4375 0.125 C 5.09375 0.1875 4.71875 0.21875 4.3125 0.21875 C 3.988281 0.21875 3.664062 0.191406 3.34375 0.140625 C 3.019531 0.0976562 2.710938 0.0195312 2.421875 -0.09375 C 2.128906 -0.207031 1.851562 -0.351562 1.59375 -0.53125 C 1.34375 -0.707031 1.125 -0.925781 0.9375 -1.1875 C 0.75 -1.457031 0.601562 -1.765625 0.5 -2.109375 C 0.394531 -2.453125 0.34375 -2.847656 0.34375 -3.296875 C 0.34375 -3.734375 0.394531 -4.125 0.5 -4.46875 C 0.601562 -4.8125 0.75 -5.113281 0.9375 -5.375 C 1.125 -5.632812 1.34375 -5.851562 1.59375 -6.03125 C 1.851562 -6.21875 2.128906 -6.367188 2.421875 -6.484375 C 2.710938 -6.597656 3.019531 -6.679688 3.34375 -6.734375 C 3.664062 -6.785156 3.988281 -6.8125 4.3125 -6.8125 C 4.84375 -6.8125 5.335938 -6.75 5.796875 -6.625 C 6.265625 -6.507812 6.664062 -6.3125 7 -6.03125 C 7.34375 -5.757812 7.609375 -5.398438 7.796875 -4.953125 C 7.992188 -4.515625 8.09375 -3.96875 8.09375 -3.3125 L 8.09375 -2.953125 C 8.09375 -2.878906 8.070312 -2.820312 8.03125 -2.78125 C 7.988281 -2.738281 7.925781 -2.71875 7.84375 -2.71875 L 5.171875 -2.71875 C 5.210938 -2.394531 5.273438 -2.125 5.359375 -1.90625 C 5.453125 -1.695312 5.550781 -1.53125 5.65625 -1.40625 C 5.769531 -1.28125 5.894531 -1.191406 6.03125 -1.140625 C 6.164062 -1.085938 6.296875 -1.0625 6.421875 -1.0625 Z M 7.171875 -3.5 C 7.171875 -3.84375 7.144531 -4.125 7.09375 -4.34375 C 7.039062 -4.570312 6.96875 -4.753906 6.875 -4.890625 C 6.789062 -5.023438 6.6875 -5.117188 6.5625 -5.171875 C 6.4375 -5.234375 6.3125 -5.265625 6.1875 -5.265625 C 6.082031 -5.265625 5.972656 -5.242188 5.859375 -5.203125 C 5.742188 -5.171875 5.632812 -5.09375 5.53125 -4.96875 C 5.4375 -4.84375 5.351562 -4.660156 5.28125 -4.421875 C 5.207031 -4.191406 5.164062 -3.882812 5.15625 -3.5 Z M 7.171875 -3.5 "/></g></g></g><path stroke-linecap="butt" transform="matrix(0.748005, 0, 0, 0.748005, 2.589782, 31.703815)" fill="none" stroke-linejoin="miter" d="M 0.0000828216 1.999188 L 231.710092 1.999188 " stroke="#e03932" stroke-width="4" stroke-opacity="1" stroke-miterlimit="4"/><g fill="#e03932" fill-opacity="1"><g transform="translate(123.825614, 126.913751)"><g><path d="M 5.390625 -6 L 5.390625 -0.796875 C 5.804688 -0.847656 6.1875 -0.898438 6.53125 -0.953125 C 6.675781 -0.972656 6.820312 -0.992188 6.96875 -1.015625 C 7.125 -1.035156 7.257812 -1.050781 7.375 -1.0625 C 7.5 -1.082031 7.609375 -1.097656 7.703125 -1.109375 C 7.796875 -1.117188 7.859375 -1.125 7.890625 -1.125 C 7.960938 -1.125 8.023438 -1.109375 8.078125 -1.078125 C 8.128906 -1.046875 8.15625 -0.988281 8.15625 -0.90625 L 8.15625 -0.3125 C 8.15625 -0.238281 8.132812 -0.164062 8.09375 -0.09375 C 8.0625 -0.03125 7.972656 0 7.828125 0 L 1.5625 0 C 1.363281 0 1.203125 -0.015625 1.078125 -0.046875 C 0.953125 -0.0859375 0.851562 -0.144531 0.78125 -0.21875 C 0.707031 -0.289062 0.65625 -0.382812 0.625 -0.5 C 0.601562 -0.613281 0.59375 -0.742188 0.59375 -0.890625 L 0.59375 -8.109375 C 0.59375 -8.359375 0.617188 -8.554688 0.671875 -8.703125 C 0.734375 -8.847656 0.8125 -8.960938 0.90625 -9.046875 C 1.007812 -9.128906 1.132812 -9.179688 1.28125 -9.203125 C 1.425781 -9.222656 1.585938 -9.234375 1.765625 -9.234375 L 7.578125 -9.234375 C 7.722656 -9.234375 7.816406 -9.195312 7.859375 -9.125 C 7.898438 -9.0625 7.921875 -8.992188 7.921875 -8.921875 L 7.921875 -8.453125 C 7.921875 -8.367188 7.894531 -8.3125 7.84375 -8.28125 C 7.800781 -8.257812 7.742188 -8.25 7.671875 -8.25 C 7.628906 -8.25 7.5625 -8.25 7.46875 -8.25 C 7.382812 -8.257812 7.285156 -8.269531 7.171875 -8.28125 C 7.054688 -8.300781 6.929688 -8.320312 6.796875 -8.34375 C 6.660156 -8.363281 6.53125 -8.382812 6.40625 -8.40625 C 6.09375 -8.445312 5.753906 -8.5 5.390625 -8.5625 L 5.390625 -6.921875 L 7.78125 -6.921875 C 7.875 -6.921875 7.921875 -6.878906 7.921875 -6.796875 L 7.921875 -6.15625 C 7.921875 -6.050781 7.875 -6 7.78125 -6 Z M 5.390625 -6 "/></g></g><g transform="translate(132.248703, 126.913751)"><g><path d="M 5.171875 -6.8125 C 5.453125 -6.8125 5.726562 -6.796875 6 -6.765625 C 6.269531 -6.734375 6.53125 -6.691406 6.78125 -6.640625 C 7.03125 -6.585938 7.253906 -6.53125 7.453125 -6.46875 C 7.660156 -6.40625 7.828125 -6.34375 7.953125 -6.28125 C 7.972656 -6.269531 7.992188 -6.253906 8.015625 -6.234375 C 8.046875 -6.222656 8.0625 -6.195312 8.0625 -6.15625 C 8.0625 -6.132812 8.054688 -6.113281 8.046875 -6.09375 C 8.046875 -6.070312 8.046875 -6.050781 8.046875 -6.03125 L 7.96875 -5.65625 C 7.957031 -5.601562 7.941406 -5.570312 7.921875 -5.5625 C 7.910156 -5.550781 7.898438 -5.546875 7.890625 -5.546875 C 7.867188 -5.546875 7.828125 -5.550781 7.765625 -5.5625 C 7.703125 -5.570312 7.632812 -5.578125 7.5625 -5.578125 C 7.320312 -5.578125 7.128906 -5.507812 6.984375 -5.375 C 6.847656 -5.25 6.757812 -5.023438 6.71875 -4.703125 L 6.359375 -1.703125 C 6.328125 -1.429688 6.238281 -1.179688 6.09375 -0.953125 C 5.945312 -0.722656 5.738281 -0.519531 5.46875 -0.34375 C 5.195312 -0.164062 4.863281 -0.03125 4.46875 0.0625 C 4.070312 0.164062 3.609375 0.21875 3.078125 0.21875 C 2.742188 0.21875 2.414062 0.195312 2.09375 0.15625 C 1.78125 0.125 1.488281 0.078125 1.21875 0.015625 C 0.957031 -0.046875 0.722656 -0.101562 0.515625 -0.15625 C 0.316406 -0.21875 0.171875 -0.265625 0.078125 -0.296875 C 0.046875 -0.304688 0.0195312 -0.316406 0 -0.328125 C -0.0195312 -0.347656 -0.03125 -0.375 -0.03125 -0.40625 C -0.03125 -0.425781 -0.0234375 -0.445312 -0.015625 -0.46875 C -0.015625 -0.488281 -0.0078125 -0.515625 0 -0.546875 L 0.078125 -0.90625 C 0.078125 -0.9375 0.0859375 -0.960938 0.109375 -0.984375 C 0.128906 -1.003906 0.171875 -1.015625 0.234375 -1.015625 C 0.367188 -1.015625 0.507812 -1.019531 0.65625 -1.03125 C 0.800781 -1.050781 0.929688 -1.09375 1.046875 -1.15625 C 1.171875 -1.21875 1.28125 -1.316406 1.375 -1.453125 C 1.46875 -1.585938 1.53125 -1.773438 1.5625 -2.015625 L 2.015625 -5.109375 C 2.066406 -5.441406 2.1875 -5.71875 2.375 -5.9375 C 2.570312 -6.15625 2.8125 -6.328125 3.09375 -6.453125 C 3.382812 -6.585938 3.707031 -6.679688 4.0625 -6.734375 C 4.425781 -6.785156 4.796875 -6.8125 5.171875 -6.8125 Z M 5.171875 -6.8125 "/></g></g><g transform="translate(140.279273, 126.913751)"><g><path d="M 0.140625 -4.46875 C 0.046875 -4.46875 0 -4.519531 0 -4.625 L 0 -5.125 C 0 -5.21875 0.046875 -5.265625 0.140625 -5.265625 L 0.796875 -5.265625 L 0.796875 -6.734375 C 0.796875 -6.796875 0.804688 -6.859375 0.828125 -6.921875 C 0.847656 -6.984375 0.898438 -7.03125 0.984375 -7.0625 L 4.546875 -8.375 C 4.703125 -8.4375 4.832031 -8.484375 4.9375 -8.515625 C 5.050781 -8.546875 5.148438 -8.5625 5.234375 -8.5625 C 5.265625 -8.5625 5.296875 -8.554688 5.328125 -8.546875 C 5.367188 -8.535156 5.40625 -8.515625 5.4375 -8.484375 C 5.46875 -8.460938 5.492188 -8.425781 5.515625 -8.375 C 5.535156 -8.332031 5.546875 -8.28125 5.546875 -8.21875 L 5.546875 -5.265625 L 6.703125 -5.265625 C 6.796875 -5.265625 6.84375 -5.21875 6.84375 -5.125 L 6.84375 -4.625 C 6.84375 -4.519531 6.796875 -4.46875 6.703125 -4.46875 L 5.546875 -4.46875 L 5.546875 -1.890625 C 5.546875 -1.578125 5.59375 -1.359375 5.6875 -1.234375 C 5.789062 -1.117188 5.945312 -1.0625 6.15625 -1.0625 C 6.207031 -1.0625 6.257812 -1.066406 6.3125 -1.078125 C 6.363281 -1.085938 6.410156 -1.097656 6.453125 -1.109375 C 6.492188 -1.117188 6.535156 -1.128906 6.578125 -1.140625 C 6.617188 -1.148438 6.648438 -1.15625 6.671875 -1.15625 C 6.722656 -1.15625 6.75 -1.125 6.75 -1.0625 L 6.75 -0.578125 C 6.75 -0.484375 6.726562 -0.421875 6.6875 -0.390625 C 6.65625 -0.367188 6.628906 -0.351562 6.609375 -0.34375 C 6.441406 -0.269531 6.25 -0.195312 6.03125 -0.125 C 5.8125 -0.0625 5.570312 -0.00390625 5.3125 0.046875 C 5.0625 0.0976562 4.789062 0.140625 4.5 0.171875 C 4.21875 0.203125 3.9375 0.21875 3.65625 0.21875 C 3.25 0.21875 2.867188 0.195312 2.515625 0.15625 C 2.171875 0.125 1.867188 0.0351562 1.609375 -0.109375 C 1.359375 -0.253906 1.160156 -0.472656 1.015625 -0.765625 C 0.867188 -1.054688 0.796875 -1.445312 0.796875 -1.9375 L 0.796875 -4.46875 Z M 0.140625 -4.46875 "/></g></g><g transform="translate(147.511933, 126.913751)"><g><path d="M 0.65625 -1.359375 C 0.65625 -1.566406 0.691406 -1.757812 0.765625 -1.9375 C 0.847656 -2.113281 0.957031 -2.269531 1.09375 -2.40625 C 1.226562 -2.539062 1.382812 -2.644531 1.5625 -2.71875 C 1.75 -2.800781 1.941406 -2.84375 2.140625 -2.84375 C 2.347656 -2.84375 2.539062 -2.800781 2.71875 -2.71875 C 2.90625 -2.644531 3.066406 -2.539062 3.203125 -2.40625 C 3.335938 -2.269531 3.441406 -2.113281 3.515625 -1.9375 C 3.597656 -1.757812 3.640625 -1.566406 3.640625 -1.359375 C 3.640625 -1.148438 3.597656 -0.957031 3.515625 -0.78125 C 3.441406 -0.601562 3.335938 -0.445312 3.203125 -0.3125 C 3.066406 -0.175781 2.90625 -0.0703125 2.71875 0 C 2.539062 0.0820312 2.347656 0.125 2.140625 0.125 C 1.941406 0.125 1.75 0.0820312 1.5625 0 C 1.382812 -0.0703125 1.226562 -0.175781 1.09375 -0.3125 C 0.957031 -0.445312 0.847656 -0.601562 0.765625 -0.78125 C 0.691406 -0.957031 0.65625 -1.148438 0.65625 -1.359375 Z M 0.65625 -1.359375 "/></g></g><g transform="translate(151.810347, 126.913751)"><g/></g><g transform="translate(155.761284, 126.913751)"><g><path d="M 0.546875 0 C 0.472656 0 0.414062 -0.0078125 0.375 -0.03125 C 0.332031 -0.0507812 0.3125 -0.0976562 0.3125 -0.171875 C 0.3125 -0.210938 0.328125 -0.257812 0.359375 -0.3125 C 0.390625 -0.375 0.425781 -0.429688 0.46875 -0.484375 C 0.664062 -0.742188 0.84375 -1.019531 1 -1.3125 C 1.164062 -1.613281 1.304688 -1.914062 1.421875 -2.21875 C 1.546875 -2.53125 1.640625 -2.835938 1.703125 -3.140625 C 1.773438 -3.441406 1.8125 -3.71875 1.8125 -3.96875 C 1.8125 -4.269531 1.789062 -4.519531 1.75 -4.71875 C 1.71875 -4.914062 1.664062 -5.070312 1.59375 -5.1875 C 1.53125 -5.3125 1.445312 -5.398438 1.34375 -5.453125 C 1.25 -5.503906 1.144531 -5.53125 1.03125 -5.53125 C 0.976562 -5.53125 0.921875 -5.519531 0.859375 -5.5 C 0.804688 -5.476562 0.753906 -5.453125 0.703125 -5.421875 C 0.648438 -5.398438 0.601562 -5.378906 0.5625 -5.359375 C 0.519531 -5.335938 0.488281 -5.328125 0.46875 -5.328125 C 0.425781 -5.328125 0.398438 -5.34375 0.390625 -5.375 L 0.109375 -5.8125 C 0.0976562 -5.820312 0.09375 -5.835938 0.09375 -5.859375 C 0.09375 -5.878906 0.0976562 -5.894531 0.109375 -5.90625 C 0.117188 -5.925781 0.128906 -5.941406 0.140625 -5.953125 C 0.304688 -6.085938 0.5 -6.207031 0.71875 -6.3125 C 0.945312 -6.414062 1.191406 -6.503906 1.453125 -6.578125 C 1.722656 -6.648438 2.003906 -6.707031 2.296875 -6.75 C 2.585938 -6.789062 2.878906 -6.8125 3.171875 -6.8125 C 3.566406 -6.8125 3.914062 -6.78125 4.21875 -6.71875 C 4.519531 -6.65625 4.78125 -6.566406 5 -6.453125 C 5.226562 -6.335938 5.414062 -6.203125 5.5625 -6.046875 C 5.71875 -5.890625 5.84375 -5.722656 5.9375 -5.546875 C 6.03125 -5.378906 6.097656 -5.203125 6.140625 -5.015625 C 6.179688 -4.828125 6.203125 -4.640625 6.203125 -4.453125 C 6.203125 -4.160156 6.144531 -3.859375 6.03125 -3.546875 C 5.925781 -3.242188 5.753906 -2.941406 5.515625 -2.640625 C 5.285156 -2.335938 4.988281 -2.035156 4.625 -1.734375 C 4.257812 -1.429688 3.816406 -1.140625 3.296875 -0.859375 C 3.617188 -0.878906 3.945312 -0.894531 4.28125 -0.90625 C 4.625 -0.914062 4.9375 -0.925781 5.21875 -0.9375 C 5.507812 -0.945312 5.753906 -0.957031 5.953125 -0.96875 C 6.160156 -0.976562 6.296875 -0.984375 6.359375 -0.984375 C 6.484375 -0.984375 6.570312 -0.960938 6.625 -0.921875 C 6.6875 -0.878906 6.71875 -0.800781 6.71875 -0.6875 L 6.71875 -0.25 C 6.71875 -0.226562 6.710938 -0.203125 6.703125 -0.171875 C 6.691406 -0.140625 6.675781 -0.109375 6.65625 -0.078125 C 6.632812 -0.0546875 6.601562 -0.0351562 6.5625 -0.015625 C 6.519531 -0.00390625 6.460938 0 6.390625 0 Z M 0.546875 0 "/></g></g><g transform="translate(162.479165, 126.913751)"><g><path d="M 0.390625 -3.28125 C 0.390625 -3.769531 0.484375 -4.226562 0.671875 -4.65625 C 0.859375 -5.082031 1.109375 -5.457031 1.421875 -5.78125 C 1.742188 -6.101562 2.117188 -6.351562 2.546875 -6.53125 C 2.972656 -6.71875 3.429688 -6.8125 3.921875 -6.8125 C 4.410156 -6.8125 4.867188 -6.71875 5.296875 -6.53125 C 5.722656 -6.351562 6.097656 -6.101562 6.421875 -5.78125 C 6.742188 -5.457031 6.992188 -5.082031 7.171875 -4.65625 C 7.359375 -4.226562 7.453125 -3.769531 7.453125 -3.28125 C 7.453125 -2.789062 7.359375 -2.332031 7.171875 -1.90625 C 6.992188 -1.476562 6.742188 -1.101562 6.421875 -0.78125 C 6.097656 -0.457031 5.722656 -0.203125 5.296875 -0.015625 C 4.867188 0.160156 4.410156 0.25 3.921875 0.25 C 3.429688 0.25 2.972656 0.160156 2.546875 -0.015625 C 2.117188 -0.203125 1.742188 -0.457031 1.421875 -0.78125 C 1.109375 -1.101562 0.859375 -1.476562 0.671875 -1.90625 C 0.484375 -2.332031 0.390625 -2.789062 0.390625 -3.28125 Z M 5.46875 -1.5 C 5.601562 -1.5 5.738281 -1.53125 5.875 -1.59375 C 6.007812 -1.664062 6.125 -1.769531 6.21875 -1.90625 C 6.320312 -2.050781 6.398438 -2.234375 6.453125 -2.453125 C 6.515625 -2.679688 6.546875 -2.957031 6.546875 -3.28125 C 6.546875 -3.601562 6.515625 -3.875 6.453125 -4.09375 C 6.398438 -4.320312 6.320312 -4.503906 6.21875 -4.640625 C 6.125 -4.785156 6.007812 -4.890625 5.875 -4.953125 C 5.738281 -5.023438 5.601562 -5.0625 5.46875 -5.0625 C 5.320312 -5.0625 5.179688 -5.023438 5.046875 -4.953125 C 4.921875 -4.890625 4.804688 -4.785156 4.703125 -4.640625 C 4.609375 -4.503906 4.53125 -4.320312 4.46875 -4.09375 C 4.414062 -3.875 4.390625 -3.601562 4.390625 -3.28125 C 4.390625 -2.957031 4.414062 -2.679688 4.46875 -2.453125 C 4.53125 -2.234375 4.609375 -2.050781 4.703125 -1.90625 C 4.804688 -1.769531 4.921875 -1.664062 5.046875 -1.59375 C 5.179688 -1.53125 5.320312 -1.5 5.46875 -1.5 Z M 5.46875 -1.5 "/></g></g><g transform="translate(170.329561, 126.913751)"><g><path d="M 0.546875 0 C 0.472656 0 0.414062 -0.0078125 0.375 -0.03125 C 0.332031 -0.0507812 0.3125 -0.0976562 0.3125 -0.171875 C 0.3125 -0.210938 0.328125 -0.257812 0.359375 -0.3125 C 0.390625 -0.375 0.425781 -0.429688 0.46875 -0.484375 C 0.664062 -0.742188 0.84375 -1.019531 1 -1.3125 C 1.164062 -1.613281 1.304688 -1.914062 1.421875 -2.21875 C 1.546875 -2.53125 1.640625 -2.835938 1.703125 -3.140625 C 1.773438 -3.441406 1.8125 -3.71875 1.8125 -3.96875 C 1.8125 -4.269531 1.789062 -4.519531 1.75 -4.71875 C 1.71875 -4.914062 1.664062 -5.070312 1.59375 -5.1875 C 1.53125 -5.3125 1.445312 -5.398438 1.34375 -5.453125 C 1.25 -5.503906 1.144531 -5.53125 1.03125 -5.53125 C 0.976562 -5.53125 0.921875 -5.519531 0.859375 -5.5 C 0.804688 -5.476562 0.753906 -5.453125 0.703125 -5.421875 C 0.648438 -5.398438 0.601562 -5.378906 0.5625 -5.359375 C 0.519531 -5.335938 0.488281 -5.328125 0.46875 -5.328125 C 0.425781 -5.328125 0.398438 -5.34375 0.390625 -5.375 L 0.109375 -5.8125 C 0.0976562 -5.820312 0.09375 -5.835938 0.09375 -5.859375 C 0.09375 -5.878906 0.0976562 -5.894531 0.109375 -5.90625 C 0.117188 -5.925781 0.128906 -5.941406 0.140625 -5.953125 C 0.304688 -6.085938 0.5 -6.207031 0.71875 -6.3125 C 0.945312 -6.414062 1.191406 -6.503906 1.453125 -6.578125 C 1.722656 -6.648438 2.003906 -6.707031 2.296875 -6.75 C 2.585938 -6.789062 2.878906 -6.8125 3.171875 -6.8125 C 3.566406 -6.8125 3.914062 -6.78125 4.21875 -6.71875 C 4.519531 -6.65625 4.78125 -6.566406 5 -6.453125 C 5.226562 -6.335938 5.414062 -6.203125 5.5625 -6.046875 C 5.71875 -5.890625 5.84375 -5.722656 5.9375 -5.546875 C 6.03125 -5.378906 6.097656 -5.203125 6.140625 -5.015625 C 6.179688 -4.828125 6.203125 -4.640625 6.203125 -4.453125 C 6.203125 -4.160156 6.144531 -3.859375 6.03125 -3.546875 C 5.925781 -3.242188 5.753906 -2.941406 5.515625 -2.640625 C 5.285156 -2.335938 4.988281 -2.035156 4.625 -1.734375 C 4.257812 -1.429688 3.816406 -1.140625 3.296875 -0.859375 C 3.617188 -0.878906 3.945312 -0.894531 4.28125 -0.90625 C 4.625 -0.914062 4.9375 -0.925781 5.21875 -0.9375 C 5.507812 -0.945312 5.753906 -0.957031 5.953125 -0.96875 C 6.160156 -0.976562 6.296875 -0.984375 6.359375 -0.984375 C 6.484375 -0.984375 6.570312 -0.960938 6.625 -0.921875 C 6.6875 -0.878906 6.71875 -0.800781 6.71875 -0.6875 L 6.71875 -0.25 C 6.71875 -0.226562 6.710938 -0.203125 6.703125 -0.171875 C 6.691406 -0.140625 6.675781 -0.109375 6.65625 -0.078125 C 6.632812 -0.0546875 6.601562 -0.0351562 6.5625 -0.015625 C 6.519531 -0.00390625 6.460938 0 6.390625 0 Z M 0.546875 0 "/></g></g><g transform="translate(177.047442, 126.913751)"><g><path d="M 7.25 -0.921875 C 7.34375 -0.921875 7.390625 -0.875 7.390625 -0.78125 L 7.390625 -0.140625 C 7.390625 -0.046875 7.34375 0 7.25 0 L 6.375 0 L 6.375 2.078125 C 6.375 2.171875 6.351562 2.242188 6.3125 2.296875 C 6.269531 2.347656 6.1875 2.375 6.0625 2.375 L 5.390625 2.375 C 5.273438 2.375 5.203125 2.34375 5.171875 2.28125 C 5.140625 2.21875 5.125 2.148438 5.125 2.078125 L 5.125 0 L 1.078125 0 C 0.753906 0 0.523438 -0.046875 0.390625 -0.140625 C 0.265625 -0.234375 0.203125 -0.375 0.203125 -0.5625 C 0.203125 -0.65625 0.21875 -0.765625 0.25 -0.890625 L 1.4375 -5.6875 C 1.46875 -5.832031 1.503906 -5.960938 1.546875 -6.078125 C 1.597656 -6.191406 1.664062 -6.285156 1.75 -6.359375 C 1.832031 -6.429688 1.9375 -6.488281 2.0625 -6.53125 C 2.1875 -6.570312 2.351562 -6.59375 2.5625 -6.59375 L 4.390625 -6.59375 C 4.554688 -6.59375 4.691406 -6.570312 4.796875 -6.53125 C 4.910156 -6.5 4.992188 -6.453125 5.046875 -6.390625 C 5.109375 -6.335938 5.148438 -6.273438 5.171875 -6.203125 C 5.203125 -6.128906 5.21875 -6.050781 5.21875 -5.96875 C 5.21875 -5.894531 5.207031 -5.816406 5.1875 -5.734375 C 5.175781 -5.660156 5.164062 -5.585938 5.15625 -5.515625 L 4.09375 -0.921875 L 5.125 -0.921875 L 5.125 -2.765625 C 5.125 -2.835938 5.140625 -2.898438 5.171875 -2.953125 C 5.203125 -3.015625 5.273438 -3.046875 5.390625 -3.046875 L 6.078125 -3.046875 C 6.191406 -3.046875 6.269531 -3.019531 6.3125 -2.96875 C 6.351562 -2.925781 6.375 -2.859375 6.375 -2.765625 L 6.375 -0.921875 Z M 7.25 -0.921875 "/></g></g></g></svg>